:SAMPLES-PER-SECOND 30
:FULLY-SPECIFIED
:DEGREES
62
root  -57.6262 26.7697 0.948525 -170.064 85.1227 -170.826
RightUpLeg  -58.6732 -6.36538 2.71554
RightLeg  113.836 13.9324 -5.03465
RightFoot  6.65696 -0.138012 0.727532
RightToes  1.16414e-010 -1.59028e-015 9.93923e-017
Spine  37.7774 -1.32312 -0.56647
Spine1  -6.06951 -1.39126 0.840051
HEad  -25.4101 2.21488 4.61531
LeftShoulder1  9.93923e-017 0 1.22299e-017
LeftArm  -5.92041 -44.6497 -59.1102
LeftForeArm  -130.575 -49.1325 167.773
LeftHand  0.0340159 4.01078 18.3387
RightShoulder  1.98785e-016 -4.96962e-017 1.55301e-017
RightArm  -27.0527 34.8296 66.5474
RightForeArm  73.3228 41.3913 -165.723
RightHand  5.14747 14.4263 35.2499
LeftUpLeg  -55.1614 1.0643 3.06859
LeftLeg  111.305 -14.1437 0.706502
LeftFoot  9.60328 0.867439 -3.99134
LeftToes  -6.63929e-010 -3.62392e-011 -1.02376e-010
63
root  -56.2769 27.8223 0.853755 -168.374 85.3285 -168.991
RightUpLeg  -61.8885 -6.27074 3.0818
RightLeg  110.64 12.5224 -2.65799
RightFoot  1.64638 -0.152863 1.3125
RightToes  1.16414e-010 -1.59028e-015 9.93923e-017
Spine  38.0814 -1.61087 0.0731339
Spine1  -4.48626 -1.39037 0.497276
HEad  -24.7172 2.03069 5.09101
LeftShoulder1  9.93923e-017 0 1.22299e-017
LeftArm  -5.23999 -43.9602 -59.9502
LeftForeArm  -129.012 -49.6768 167.234
LeftHand  0.105583 4.1695 17.5525
RightShoulder  1.98785e-016 -4.96962e-017 1.55301e-017
RightArm  -26.9288 34.7606 67.0405
RightForeArm  73.6033 41.6847 -165.445
RightHand  5.00494 13.7146 35.3315
LeftUpLeg  -58.0285 -0.0983937 3.33374
LeftLeg  108.919 -15.0843 3.52452
LeftFoot  7.87335 0.301278 -1.36806
LeftToes  -6.63929e-010 -3.62392e-011 -1.02376e-010
64
root  -55.0204 28.7233 0.797945 -171.771 85.9056 -172.126
RightUpLeg  -64.9743 -5.85256 3.17763
RightLeg  105.424 11.0891 0.625276
RightFoot  -3.19941 -0.371881 4.26343
RightToes  1.16414e-010 -1.59028e-015 9.93923e-017
Spine  39.5934 -1.6527 0.122064
Spine1  -3.6375 -1.06742 -0.671669
HEad  -23.734 1.3473 5.22372
LeftShoulder1  9.93923e-017 0 1.22299e-017
LeftArm  -4.51498 -43.2048 -61.3165
LeftForeArm  -127.737 -50.077 166.82
LeftHand  0.133233 4.1991 16.889
RightShoulder  1.98785e-016 -4.96962e-017 1.55301e-017
RightArm  -27.0117 35.0209 67.1028
RightForeArm  72.7453 42.738 -164.272
RightHand  4.91555 12.5598 36.2682
LeftUpLeg  -61.4512 -0.450334 2.83166
LeftLeg  104.593 -15.5355 6.34387
LeftFoot  0.484707 -0.046078 0.268599
LeftToes  -6.63929e-010 -3.62392e-011 -1.02376e-010
65
root  -53.8314 29.2692 0.734181 -170.344 86.4372 -170.774
RightUpLeg  -68.0928 -5.73896 4.11406
RightLeg  98.7429 10.5728 2.97414
RightFoot  -6.76717 -0.318928 5.6587
RightToes  1.16414e-010 -1.59028e-015 9.93923e-017
Spine  41.3773 -1.81201 0.641268
Spine1  -2.84581 -0.631822 -1.86756
HEad  -23.2735 1.02806 4.93336
LeftShoulder1  9.93923e-017 0 1.22299e-017
LeftArm  -4.11201 -42.4705 -62.6214
LeftForeArm  -127.429 -50.093 166.785
LeftHand  0.120538 4.13835 16.7007
RightShoulder  1.98785e-016 -4.96962e-017 1.55301e-017
RightArm  -26.5655 34.9426 67.5272
RightForeArm  72.5526 43.5283 -163.387
RightHand  4.81365 11.7733 36.7362
LeftUpLeg  -65.2039 -0.305844 2.11927
LeftLeg  99.0689 -14.5846 5.74587
LeftFoot  -5.24857 0.0448041 -0.864809
LeftToes  -6.63929e-010 -3.62392e-011 -1.02376e-010
66
root  -52.6996 29.3736 0.654705 -165.389 86.6862 -166.322
RightUpLeg  -71.355 -6.29779 5.8054
RightLeg  91.8416 10.7607 3.86987
RightFoot  -10.291 -0.135841 5.59923
RightToes  1.16414e-010 -1.59028e-015 9.93923e-017
Spine  43.2009 -2.10709 1.49926
Spine1  -2.22344 -0.321161 -2.6752
HEad  -23.4191 1.34902 4.64566
LeftShoulder1  9.93923e-017 0 1.22299e-017
LeftArm  -3.89815 -41.8805 -63.737
LeftForeArm  -127.027 -50.0642 166.778
LeftHand  0.1259 4.14307 16.56
RightShoulder  1.98785e-016 -4.96962e-017 1.55301e-017
RightArm  -25.823 34.417 68.295
RightForeArm  72.3528 43.7037 -163.176
RightHand  4.65619 10.7335 37.2691
LeftUpLeg  -69.1331 -0.0533158 1.03785
LeftLeg  93.2814 -13.3651 2.29328
LeftFoot  -8.40496 0.0946413 -2.69273
LeftToes  -6.63929e-010 -3.62392e-011 -1.02376e-010
67
root  -51.6466 29.0612 0.5939 -169.038 86.6397 -169.733
RightUpLeg  -73.5804 -7.2524 7.01311
RightLeg  85.7017 11.103 4.55072
RightFoot  -13.7271 0.0372005 6.34929
RightToes  1.16414e-010 -1.59028e-015 9.93923e-017
Spine  46.4344 -2.3908 1.82506
Spine1  -2.42164 -0.173891 -3.2267
HEad  -23.9137 1.74603 4.31572
LeftShoulder1  9.93923e-017 0 1.22299e-017
LeftArm  -3.89572 -41.5527 -64.4908
LeftForeArm  -126.32 -50.0901 166.705
LeftHand  0.145296 4.19275 16.3869
RightShoulder  1.98785e-016 -4.96962e-017 1.55301e-017
RightArm  -24.8369 33.4977 69.24
RightForeArm  72.2816 43.1987 -163.736
RightHand  4.49809 9.86217 37.5805
LeftUpLeg  -71.8621 0.0920513 -0.777793
LeftLeg  86.6801 -12.8529 0.325886
LeftFoot  -11.566 0.0336637 -4.4315
LeftToes  -6.63929e-010 -3.62392e-011 -1.02376e-010
